<?xml version="1.0" encoding="utf-8"?>
<!DOCTYPE svg PUBLIC "-//W3C//DTD SVG 20010904//EN" "http://www.w3.org/TR/2001/REC-SVG-20010904/DTD/svg10.dtd">
<svg version="1.0" xmlns="http://www.w3.org/2000/svg" width="258pt" height="258pt" viewBox="0 0 258 258" style="" preserveAspectRatio="xMidYMid meet">
<g fill="#0078D7FF" stroke="#0078D7FF">
<path d="M 253.500 48.498 C 252.950 48.685 239.113 51.205 222.750 54.098 L 193.000 59.356 193.000 128.258 L 193.000 197.159 190.250 196.628 C 182.895 195.208 35.904 177.763 35.415 178.252 C 35.105 178.562 48.947 196.193 66.176 217.432 L 97.500 256.049 97.775 240.524 C 97.927 231.986 98.382 225.000 98.787 225.000 C 99.193 225.000 120.438 231.975 146.000 240.500 C 171.562 249.025 193.076 256.000 193.809 256.000 C 194.542 256.000 209.060 244.499 226.071 230.441 L 257.000 204.883 257.000 126.441 C 257.000 46.106 257.053 47.289 253.500 48.498 "/></g>
<g fill="#0078D7FF" stroke="#0078D7FF">
<path d="M 115.000 14.803 L 115.000 27.836 97.750 34.575 C 40.907 56.782 27.479 62.122 26.840 62.774 C 26.448 63.173 20.473 70.882 13.563 79.903 L 1.000 96.307 1.000 132.115 L 1.000 167.923 4.750 168.946 C 6.813 169.509 14.039 171.493 20.810 173.355 L 33.119 176.741 32.810 133.178 L 32.500 89.615 108.500 74.959 C 150.300 66.898 186.238 59.980 188.362 59.585 L 192.224 58.867 156.078 31.935 C 136.198 17.122 118.823 4.275 117.466 3.386 L 115.000 1.770 115.000 14.803 "/></g>
</svg>
