<svg version="1.1" id="Layer_1" xmlns="http://www.w3.org/2000/svg" xmlns:xlink="http://www.w3.org/1999/xlink" x="0px" y="0px" width="100%" viewBox="0 0 500 500" enable-background="new 0 0 500 500" xml:space="preserve">
<path fill="#47704C" opacity="1.000000" stroke="none" d="
M501.000000,439.000000 
	C501.000000,459.658722 501.000000,480.317444 501.000000,500.982117 
	C334.405396,500.988098 167.810776,500.988098 1.108081,500.988098 
	C1.108081,334.333374 1.108081,167.666702 1.108081,1.000000 
	C26.081781,1.000000 51.072231,1.000000 76.324493,1.270130 
	C75.724648,2.035174 74.845749,2.502516 74.004005,3.029257 
	C65.416443,8.403154 62.644779,13.549839 65.394661,21.232140 
	C69.525269,32.771732 75.777214,42.872635 86.942780,49.149029 
	C93.226830,52.681423 99.781380,51.471008 106.343384,50.784256 
	C112.227760,50.168415 117.715843,47.734692 124.031624,51.080341 
	C131.743698,55.165642 135.091049,62.003178 139.168488,68.828590 
	C142.158707,73.834061 145.567917,79.070847 150.063370,82.568321 
	C155.185532,86.553368 161.665268,88.841011 167.656494,91.649849 
	C175.792984,95.464439 183.983063,99.172165 192.229019,102.743690 
	C200.812653,106.461472 209.505814,109.926056 218.100815,113.618385 
	C218.910767,113.966324 219.361069,115.151428 219.680862,116.057999 
	C211.853043,113.820198 205.257095,115.082130 200.195572,121.458267 
	C197.424484,124.949104 194.854248,128.608871 192.341248,132.293289 
	C184.900146,143.202972 178.007141,154.530289 169.938736,164.950089 
	C165.819855,170.269318 160.009964,174.560898 154.284943,178.267456 
	C149.518661,181.353241 148.136627,179.828583 148.487747,173.962402 
	C149.416992,158.438492 150.198639,142.905518 150.968262,127.372627 
	C151.066284,125.394257 150.804260,123.388840 150.604172,121.406532 
	C149.831024,113.746376 149.297974,106.045937 148.100006,98.451263 
	C147.472305,94.471779 146.397644,90.183228 144.215729,86.905777 
	C139.353195,79.601837 124.793381,80.713333 119.952629,88.216225 
	C118.020271,91.211266 116.874748,95.272087 116.856049,98.855484 
	C116.704773,127.848152 116.974792,156.842896 116.877731,185.836212 
	C116.869583,188.267883 115.834236,191.697891 114.062096,192.961502 
	C101.257744,202.091568 93.524963,214.121414 92.835037,229.887695 
	C92.517540,237.142944 95.158356,244.106522 99.970451,249.744202 
	C105.811295,256.587097 112.131760,263.018097 118.081467,269.771149 
	C125.709320,278.428864 133.110916,287.286102 140.747925,295.935577 
	C143.105042,298.605194 145.748779,301.098480 148.602493,303.211731 
	C149.616882,303.962891 151.849243,303.835083 153.172440,303.274689 
	C159.921555,300.416107 165.016113,295.486115 169.669739,289.900391 
	C178.030396,279.865112 186.649704,270.045349 195.397385,259.860260 
	C193.843231,258.058838 192.598022,256.557678 191.292313,255.111191 
	C181.095871,243.815247 170.982986,232.441284 160.622482,221.297668 
	C157.700867,218.155258 158.614609,216.123215 161.427826,214.025894 
	C164.555832,211.693909 167.707520,209.388824 170.923660,207.180923 
	C177.485352,202.676270 185.145645,199.222656 190.437775,193.549194 
	C198.004532,185.437195 204.130951,175.909317 210.354691,166.638474 
	C215.939438,158.319504 221.250076,149.751312 225.853699,140.864182 
	C228.467743,135.817917 230.069458,129.914307 226.947205,124.169121 
	C225.630081,121.745506 224.026672,119.477463 222.553391,117.138695 
	C222.847092,116.777939 223.140793,116.417175 223.434479,116.056419 
	C226.370239,117.355095 229.323318,118.616280 232.237274,119.962158 
	C235.706482,121.564491 239.017639,123.626297 242.623276,124.786858 
	C247.315720,126.297226 252.279297,126.942154 257.038879,128.271988 
	C265.739166,130.702866 274.375336,133.363083 283.268982,135.956116 
	C283.499664,135.984589 283.964172,136.003113 284.187073,136.238068 
	C285.640686,136.829575 286.871429,137.186127 288.092041,137.661316 
	C288.081879,137.779953 288.214478,137.977783 288.241638,138.181351 
	C288.403290,138.669876 288.627625,138.799393 289.365723,138.841156 
	C297.230682,140.915573 304.798035,142.549255 312.082336,145.018188 
	C322.494812,148.547409 332.727264,152.617935 342.984894,156.590744 
	C350.249512,159.404343 356.736572,163.489166 360.876068,170.280121 
	C366.408386,179.356171 371.954010,188.459885 376.798859,197.908157 
	C380.833191,205.775757 383.516785,214.106506 382.689850,223.376755 
	C381.456451,237.203293 380.425385,251.080017 380.185669,264.950562 
	C380.050629,272.767303 381.952118,281.127380 387.614136,286.570648 
	C395.149750,293.815094 404.103119,299.616425 412.619934,305.800140 
	C422.318298,312.841736 432.516724,319.011047 440.486389,328.443787 
	C447.049011,336.211182 452.134369,344.600372 456.355133,353.655548 
	C458.897705,359.110291 461.155823,364.705200 463.359436,370.308807 
	C469.202911,385.168243 473.493713,400.337860 472.816284,416.566803 
	C472.443817,425.489502 473.603455,433.825775 482.266907,439.201569 
	C490.340820,444.211487 495.609619,444.348389 501.000000,439.000000 
M319.827728,334.670685 
	C315.256470,330.825195 310.712341,326.946869 306.105225,323.144806 
	C302.523407,320.188904 299.289459,316.190765 295.156555,314.641357 
	C283.429810,310.245239 271.283142,306.983063 259.377106,303.046570 
	C251.700638,300.508484 244.127213,297.644592 236.601593,294.687500 
	C235.886658,294.406586 235.150421,291.933228 235.595779,291.293549 
	C240.041580,284.908417 244.683792,278.657104 249.374100,272.446228 
	C252.318878,268.546783 255.240051,264.597137 258.535431,261.003418 
	C262.215454,256.990295 265.706818,251.611237 270.374268,250.004257 
	C275.969391,248.077896 282.688507,246.265656 289.028961,249.702713 
	C290.424316,250.459106 292.607361,249.773422 294.427216,249.732727 
	C296.358246,249.689575 298.322449,249.365738 300.213684,249.612640 
	C308.152802,250.649002 316.046906,252.064621 324.001892,252.935379 
	C331.696045,253.777557 339.041260,251.924515 346.266388,249.284058 
	C353.106323,246.784363 356.154663,241.288040 357.852142,234.942276 
	C359.015411,230.593369 353.894257,219.837204 349.525360,218.325729 
	C341.468353,215.538284 333.209503,212.825500 324.814117,211.625778 
	C304.510895,208.724472 284.085327,206.670425 263.698853,204.365356 
	C257.189087,203.629303 251.821609,205.931229 247.019760,210.474640 
	C227.606125,228.843307 213.610123,251.533218 197.297195,272.370178 
	C186.163971,286.590942 175.982712,301.740112 158.765152,309.665710 
	C164.439819,317.472717 171.634064,322.263428 180.948318,324.358276 
	C187.152557,325.753693 193.033188,328.530670 199.146255,330.403259 
	C206.735245,332.727997 214.375580,334.910767 222.066132,336.870911 
	C229.640869,338.801544 237.329132,340.284241 244.917831,342.164246 
	C247.256500,342.743622 249.366592,344.210327 251.694229,344.876251 
	C258.720490,346.886383 266.424347,347.542877 272.695007,350.906494 
	C279.566925,354.592590 285.241821,360.585724 291.242493,365.798950 
	C296.926788,370.737274 302.128143,376.248291 307.952301,381.004913 
	C317.080536,388.459839 326.699036,395.314148 335.832672,402.762726 
	C342.437958,408.149384 349.312073,405.511475 355.897614,403.801086 
	C363.020477,401.951111 365.202545,395.428192 366.432129,389.048553 
	C367.052856,385.828003 367.519501,381.529663 365.925476,379.139221 
	C362.108307,373.414948 357.433807,368.096649 352.376007,363.399933 
	C341.949158,353.717346 331.046021,344.547760 319.827728,334.670685 
M101.564255,175.751816 
	C100.388741,168.263290 96.347595,161.786377 90.707603,157.705414 
	C72.595871,144.600159 51.426067,152.350189 43.843117,168.090775 
	C38.238880,179.723984 39.445911,190.670303 46.461044,200.898148 
	C52.616356,209.872406 62.286201,212.963989 72.648193,213.859955 
	C74.715118,214.038696 77.085564,213.140564 79.003769,212.140198 
	C84.325974,209.364655 90.544952,207.269135 94.469833,203.085236 
	C101.198128,195.912918 103.884521,186.688660 101.564255,175.751816 
M141.868362,323.343628 
	C138.551788,324.825470 135.298309,326.475800 131.902786,327.746704 
	C127.596313,329.358582 127.153946,332.796783 128.266342,336.217773 
	C131.322479,345.616486 135.223846,354.753113 138.001984,364.224792 
	C139.688644,369.975281 144.184250,369.081390 147.226974,368.298065 
	C153.122833,366.780182 158.947403,364.281189 164.159409,361.127563 
	C166.534088,359.690704 172.377075,359.786591 170.272827,354.012726 
	C166.657837,344.093536 163.292175,334.069550 159.212845,324.345032 
	C158.379745,322.359039 154.874069,320.406097 152.578705,320.380524 
	C149.265076,320.343597 145.931656,322.081299 141.868362,323.343628 
z" data-index="0" style="opacity: 1; visibility: visible; fill: rgb(255, 255, 255);"></path>
<path fill="#000000" opacity="1.000000" stroke="none" d="
M501.000000,438.531342 
	C495.609619,444.348389 490.340820,444.211487 482.266907,439.201569 
	C473.603455,433.825775 472.443817,425.489502 472.816284,416.566803 
	C473.493713,400.337860 469.202911,385.168243 463.359436,370.308807 
	C461.155823,364.705200 458.897705,359.110291 456.355133,353.655548 
	C452.134369,344.600372 447.049011,336.211182 440.486389,328.443787 
	C432.516724,319.011047 422.318298,312.841736 412.619934,305.800140 
	C404.103119,299.616425 395.149750,293.815094 387.614136,286.570648 
	C381.952118,281.127380 380.050629,272.767303 380.185669,264.950562 
	C380.425385,251.080017 381.456451,237.203293 382.689850,223.376755 
	C383.516785,214.106506 380.833191,205.775757 376.798859,197.908157 
	C371.954010,188.459885 366.408386,179.356171 360.876068,170.280121 
	C356.736572,163.489166 350.249512,159.404343 342.984894,156.590744 
	C332.727264,152.617935 322.494812,148.547409 312.082336,145.018188 
	C304.798035,142.549255 297.230682,140.915573 289.249359,138.703934 
	C288.551056,138.318726 288.386230,138.144989 288.214478,137.977783 
	C288.214478,137.977783 288.081879,137.779953 288.033203,137.341888 
	C286.955109,130.002701 286.410858,130.067856 279.310059,130.145615 
	C274.670288,130.196411 268.397614,130.172989 265.702057,127.408295 
	C260.252655,121.819138 254.542328,120.933311 247.657593,121.733589 
	C244.291656,122.124840 241.863083,120.916466 240.879852,117.315231 
	C240.561874,116.150589 239.411407,114.266479 238.716858,114.299332 
	C232.456161,114.595413 225.830063,111.256409 219.978348,115.947861 
	C219.361069,115.151428 218.910767,113.966324 218.100815,113.618385 
	C209.505814,109.926056 200.812653,106.461472 192.229019,102.743690 
	C183.983063,99.172165 175.792984,95.464439 167.656494,91.649849 
	C161.665268,88.841011 155.185532,86.553368 150.063370,82.568321 
	C145.567917,79.070847 142.158707,73.834061 139.168488,68.828590 
	C135.091049,62.003178 131.743698,55.165642 124.031624,51.080341 
	C117.715843,47.734692 112.227760,50.168415 106.343384,50.784256 
	C99.781380,51.471008 93.226830,52.681423 86.942780,49.149029 
	C75.777214,42.872635 69.525269,32.771732 65.394661,21.232140 
	C62.644779,13.549839 65.416443,8.403154 74.004005,3.029257 
	C74.845749,2.502516 75.724648,2.035174 76.793152,1.270130 
	C162.354233,1.000000 247.708450,1.000000 333.799622,1.332040 
	C345.614044,2.440919 356.698395,3.131604 367.767090,4.018033 
	C379.610992,4.966547 390.803802,7.462174 400.252228,15.647887 
	C403.420105,18.392448 408.001556,20.021009 412.204193,20.948584 
	C421.040405,22.898832 430.442932,22.923325 438.882690,25.846603 
	C447.038239,28.671431 454.933960,30.901814 463.507751,30.297606 
	C468.662079,29.934368 472.066315,31.879068 475.193115,36.163128 
	C477.565430,39.413429 481.363647,42.254238 485.132355,43.698231 
	C490.112183,45.606270 495.683136,45.971565 501.000000,47.000000 
	C501.000000,177.354233 501.000000,307.708466 501.000000,438.531342 
z" data-index="1" style="opacity: 1;"></path>
<path fill="#47704C" opacity="1.000000" stroke="none" d="
M501.000000,46.531342 
	C495.683136,45.971565 490.112183,45.606270 485.132355,43.698231 
	C481.363647,42.254238 477.565430,39.413429 475.193115,36.163128 
	C472.066315,31.879068 468.662079,29.934368 463.507751,30.297606 
	C454.933960,30.901814 447.038239,28.671431 438.882690,25.846603 
	C430.442932,22.923325 421.040405,22.898832 412.204193,20.948584 
	C408.001556,20.021009 403.420105,18.392448 400.252228,15.647887 
	C390.803802,7.462174 379.610992,4.966547 367.767090,4.018033 
	C356.698395,3.131604 345.614044,2.440919 334.268311,1.332040 
	C389.552124,1.000000 445.104218,1.000000 501.000000,1.000000 
	C501.000000,16.019148 501.000000,31.040915 501.000000,46.531342 
z" data-index="2" style="opacity: 1; visibility: visible; fill: rgb(255, 255, 255);"></path>
<path fill="#010101" opacity="1.000000" stroke="none" d="
M320.083282,334.918884 
	C331.046021,344.547760 341.949158,353.717346 352.376007,363.399933 
	C357.433807,368.096649 362.108307,373.414948 365.925476,379.139221 
	C367.519501,381.529663 367.052856,385.828003 366.432129,389.048553 
	C365.202545,395.428192 363.020477,401.951111 355.897614,403.801086 
	C349.312073,405.511475 342.437958,408.149384 335.832672,402.762726 
	C326.699036,395.314148 317.080536,388.459839 307.952301,381.004913 
	C302.128143,376.248291 296.926788,370.737274 291.242493,365.798950 
	C285.241821,360.585724 279.566925,354.592590 272.695007,350.906494 
	C266.424347,347.542877 258.720490,346.886383 251.694229,344.876251 
	C249.366592,344.210327 247.256500,342.743622 244.917831,342.164246 
	C237.329132,340.284241 229.640869,338.801544 222.066132,336.870911 
	C214.375580,334.910767 206.735245,332.727997 199.146255,330.403259 
	C193.033188,328.530670 187.152557,325.753693 180.948318,324.358276 
	C171.634064,322.263428 164.439819,317.472717 158.765152,309.665710 
	C175.982712,301.740112 186.163971,286.590942 197.297195,272.370178 
	C213.610123,251.533218 227.606125,228.843307 247.019760,210.474640 
	C251.821609,205.931229 257.189087,203.629303 263.698853,204.365356 
	C284.085327,206.670425 304.510895,208.724472 324.814117,211.625778 
	C333.209503,212.825500 341.468353,215.538284 349.525360,218.325729 
	C353.894257,219.837204 359.015411,230.593369 357.852142,234.942276 
	C356.154663,241.288040 353.106323,246.784363 346.266388,249.284058 
	C339.041260,251.924515 331.696045,253.777557 324.001892,252.935379 
	C316.046906,252.064621 308.152802,250.649002 300.213684,249.612640 
	C298.322449,249.365738 296.358246,249.689575 294.427216,249.732727 
	C292.607361,249.773422 290.424316,250.459106 289.028961,249.702713 
	C282.688507,246.265656 275.969391,248.077896 270.374268,250.004257 
	C265.706818,251.611237 262.215454,256.990295 258.535431,261.003418 
	C255.240051,264.597137 252.318878,268.546783 249.374100,272.446228 
	C244.683792,278.657104 240.041580,284.908417 235.595779,291.293549 
	C235.150421,291.933228 235.886658,294.406586 236.601593,294.687500 
	C244.127213,297.644592 251.700638,300.508484 259.377106,303.046570 
	C271.283142,306.983063 283.429810,310.245239 295.156555,314.641357 
	C299.289459,316.190765 302.523407,320.188904 306.105225,323.144806 
	C310.712341,326.946869 315.256470,330.825195 320.083282,334.918884 
z" data-index="3" style="opacity: 1;"></path>
<path fill="#010101" opacity="1.000000" stroke="none" d="
M219.680862,116.058006 
	C225.830063,111.256409 232.456161,114.595413 238.716858,114.299332 
	C239.411407,114.266479 240.561874,116.150589 240.879852,117.315231 
	C241.863083,120.916466 244.291656,122.124840 247.657593,121.733589 
	C254.542328,120.933311 260.252655,121.819138 265.702057,127.408295 
	C268.397614,130.172989 274.670288,130.196411 279.310059,130.145615 
	C286.410858,130.067856 286.955109,130.002701 288.043365,137.223267 
	C286.871429,137.186127 285.640686,136.829575 284.227112,136.073578 
	C284.030151,135.379166 284.016083,135.084183 284.002014,134.789215 
	C283.680756,135.168701 283.359528,135.548172 283.038269,135.927643 
	C274.375336,133.363083 265.739166,130.702866 257.038879,128.271988 
	C252.279297,126.942154 247.315720,126.297226 242.623276,124.786858 
	C239.017639,123.626297 235.706482,121.564491 232.237274,119.962158 
	C229.323318,118.616280 226.370239,117.355095 223.434479,116.056419 
	C223.140793,116.417175 222.847092,116.777939 222.553391,117.138695 
	C224.026672,119.477463 225.630081,121.745506 226.947205,124.169121 
	C230.069458,129.914307 228.467743,135.817917 225.853699,140.864182 
	C221.250076,149.751312 215.939438,158.319504 210.354691,166.638474 
	C204.130951,175.909317 198.004532,185.437195 190.437775,193.549194 
	C185.145645,199.222656 177.485352,202.676270 170.923660,207.180923 
	C167.707520,209.388824 164.555832,211.693909 161.427826,214.025894 
	C158.614609,216.123215 157.700867,218.155258 160.622482,221.297668 
	C170.982986,232.441284 181.095871,243.815247 191.292313,255.111191 
	C192.598022,256.557678 193.843231,258.058838 195.397385,259.860260 
	C186.649704,270.045349 178.030396,279.865112 169.669739,289.900391 
	C165.016113,295.486115 159.921555,300.416107 153.172440,303.274689 
	C151.849243,303.835083 149.616882,303.962891 148.602493,303.211731 
	C145.748779,301.098480 143.105042,298.605194 140.747925,295.935577 
	C133.110916,287.286102 125.709320,278.428864 118.081467,269.771149 
	C112.131760,263.018097 105.811295,256.587097 99.970451,249.744202 
	C95.158356,244.106522 92.517540,237.142944 92.835037,229.887695 
	C93.524963,214.121414 101.257744,202.091568 114.062096,192.961502 
	C115.834236,191.697891 116.869583,188.267883 116.877731,185.836212 
	C116.974792,156.842896 116.704773,127.848152 116.856049,98.855484 
	C116.874748,95.272087 118.020271,91.211266 119.952629,88.216225 
	C124.793381,80.713333 139.353195,79.601837 144.215729,86.905777 
	C146.397644,90.183228 147.472305,94.471779 148.100006,98.451263 
	C149.297974,106.045937 149.831024,113.746376 150.604172,121.406532 
	C150.804260,123.388840 151.066284,125.394257 150.968262,127.372627 
	C150.198639,142.905518 149.416992,158.438492 148.487747,173.962402 
	C148.136627,179.828583 149.518661,181.353241 154.284943,178.267456 
	C160.009964,174.560898 165.819855,170.269318 169.938736,164.950089 
	C178.007141,154.530289 184.900146,143.202972 192.341248,132.293289 
	C194.854248,128.608871 197.424484,124.949104 200.195572,121.458267 
	C205.257095,115.082130 211.853043,113.820198 219.680862,116.058006 
z" data-index="4" style="opacity: 1;"></path>
<path fill="#010101" opacity="1.000000" stroke="none" d="
M101.612167,176.178436 
	C103.884521,186.688660 101.198128,195.912918 94.469833,203.085236 
	C90.544952,207.269135 84.325974,209.364655 79.003769,212.140198 
	C77.085564,213.140564 74.715118,214.038696 72.648193,213.859955 
	C62.286201,212.963989 52.616356,209.872406 46.461044,200.898148 
	C39.445911,190.670303 38.238880,179.723984 43.843117,168.090775 
	C51.426067,152.350189 72.595871,144.600159 90.707603,157.705414 
	C96.347595,161.786377 100.388741,168.263290 101.612167,176.178436 
z" data-index="5"></path>
<path fill="#010101" opacity="1.000000" stroke="none" d="
M142.237518,323.202698 
	C145.931656,322.081299 149.265076,320.343597 152.578705,320.380524 
	C154.874069,320.406097 158.379745,322.359039 159.212845,324.345032 
	C163.292175,334.069550 166.657837,344.093536 170.272827,354.012726 
	C172.377075,359.786591 166.534088,359.690704 164.159409,361.127563 
	C158.947403,364.281189 153.122833,366.780182 147.226974,368.298065 
	C144.184250,369.081390 139.688644,369.975281 138.001984,364.224792 
	C135.223846,354.753113 131.322479,345.616486 128.266342,336.217773 
	C127.153946,332.796783 127.596313,329.358582 131.902786,327.746704 
	C135.298309,326.475800 138.551788,324.825470 142.237518,323.202698 
z" data-index="6"></path>
<path fill="#000000" opacity="1.000000" stroke="none" d="
M283.268982,135.956116 
	C283.359528,135.548172 283.680756,135.168701 284.002014,134.789215 
	C284.016083,135.084183 284.030151,135.379166 284.004211,135.838623 
	C283.964172,136.003113 283.499664,135.984589 283.268982,135.956116 
z" data-index="7"></path>
<path fill="#010101" opacity="1.000000" stroke="none" d="
M288.241638,138.181351 
	C288.386230,138.144989 288.551056,138.318726 288.825348,138.636230 
	C288.627625,138.799393 288.403290,138.669876 288.241638,138.181351 
z" data-index="8"></path>
</svg>