<svg enable-background="new 0 0 426.667 426.667" version="1.1" viewBox="0 0 426.67 426.67" xml:space="preserve" xmlns="http://www.w3.org/2000/svg"><path d="m170.67 128-69.333 69.333c6.613 2.56 11.947 5.653 16.427 8.32 7.893 4.8 12.693 7.68 24.533 7.68s16.64-2.88 24.533-7.573c9.6-5.76 22.827-13.76 46.507-13.76s36.907 7.893 46.507 13.76c7.893 4.8 12.693 7.573 24.533 7.573s16.64-2.88 24.533-7.573c2.56-1.6 5.44-3.2 8.64-4.907l-136.64-136.85c-33.174-33.174-63.574-42.88-116.91-42.667v53.333c38.827-0.213 61.547 8.32 85.333 32l21.334 21.334z"/><path d="m401.92 259.1c-9.6-5.867-22.827-13.76-46.507-13.76s-36.907 8-46.507 13.76c-7.893 4.693-12.693 7.573-24.533 7.573s-16.64-2.773-24.533-7.573c-9.6-5.867-22.827-13.76-46.507-13.76s-36.907 8-46.507 13.76c-7.893 4.693-12.693 7.573-24.533 7.573-11.947 0-16.747-2.88-24.64-7.68-9.6-5.76-22.827-13.653-46.507-13.653s-36.907 7.893-46.507 13.653c-8 4.8-12.8 7.68-24.64 7.68v42.667c23.68 0 36.907-7.893 46.507-13.653 8-4.8 12.693-7.68 24.64-7.68s16.747 2.88 24.64 7.68c9.6 5.76 22.827 13.653 46.507 13.653s36.907-7.893 46.72-13.76c7.893-4.693 12.693-7.573 24.533-7.573s16.64 2.773 24.533 7.573c9.6 5.867 22.827 13.76 46.507 13.76s36.907-8 46.507-13.76c7.893-4.693 12.693-7.573 24.533-7.573s16.64 2.88 24.533 7.573c9.6 5.867 22.827 13.76 46.507 13.76v-42.667c-11.839 0-16.639-2.88-24.746-7.573z"/><path d="m355.41 341.34c-23.68 0-36.907 8-46.507 13.76-7.893 4.693-12.693 7.573-24.533 7.573s-16.64-2.773-24.533-7.573c-9.6-5.867-22.827-13.76-46.507-13.76s-36.907 8-46.507 13.76c-7.893 4.693-12.693 7.573-24.533 7.573-11.947 0-16.747-2.88-24.64-7.68-9.6-5.76-22.827-13.653-46.507-13.653s-36.907 7.893-46.507 13.653c-8 4.8-12.8 7.68-24.64 7.68v42.667c23.68 0 36.907-7.893 46.507-13.653 8-4.8 12.693-7.68 24.64-7.68s16.747 2.88 24.64 7.68c9.6 5.76 22.827 13.653 46.507 13.653s36.907-7.893 46.72-13.76c7.893-4.693 12.693-7.573 24.533-7.573s16.64 2.773 24.533 7.573c9.6 5.867 22.827 13.76 46.507 13.76s36.907-8 46.507-13.76c7.893-4.693 12.693-7.573 24.533-7.573s16.64 2.88 24.533 7.573c9.6 5.867 22.827 13.76 46.507 13.76v-42.667c-11.84 0-16.64-2.88-24.747-7.573-9.599-5.867-22.826-13.76-46.506-13.76z"/><circle cx="309.33" cy="74.668" r="53.333"/></svg>
