<svg enable-background="new 0 0 512 512" version="1.1" viewBox="0 0 512 512" xml:space="preserve" xmlns="http://www.w3.org/2000/svg"><circle cx="256" cy="256" r="256" fill="#6E64C3"/><path d="m405.21 129.4-70.646-28.547-124.44 120.58-75.183-57.035-28.518 14.259 0.366 150.67 180.73 180.73c126.51-15.535 224.48-123.36 224.48-254.07 0-6.947-0.287-13.827-0.83-20.635l-105.96-105.96z" fill="#5046AF"/><path d="m405.21 129.4-70.646-28.547-124.44 120.58-75.183-57.035-28.518 14.259 0.366 150.67 28.518 14.259 75.183-57.035 124.44 120.58 70.646-28.547-0.366-249.19zm-262.77 156.51v-63.825l35.281 31.912h0.366l-35.647 31.913zm185.04 21.226-70.928-53.139h-0.366l71.294-53.139v106.28z" fill="#fff"/></svg>
