<svg enable-background="new 0 0 512.002 512.002" viewBox="0 0 512.002 512.002" xmlns="http://www.w3.org/2000/svg"><g><path d="m511.9 312.259c-2.482-56.597-50.543-100.634-107.145-98.143-7.056.309-13.917 1.328-20.516 2.983l-38.64-93.353h63.672c4.919 0 8.921 4.002 8.921 8.921s-4.002 8.921-8.921 8.921h-7.293c-8.284 0-15 6.716-15 15s6.716 15 15 15h7.293c21.461 0 38.921-17.46 38.921-38.921s-17.46-38.921-38.921-38.921h-86.115c-5.009 0-9.688 2.5-12.471 6.665-2.783 4.164-3.305 9.443-1.389 14.072l16.677 40.29h-129.408l-13.219-32.275h41.119c8.284 0 15-6.716 15-15s-6.716-15-15-15h-63.472c-4.999 0-9.67 2.49-12.455 6.642-2.786 4.151-3.32 9.417-1.426 14.043l22.635 55.268-29.87 52.517c-12.878-5.008-26.971-7.492-41.639-6.85-27.413 1.197-52.718 12.979-71.253 33.176-18.542 20.205-28.09 46.41-26.885 73.789 2.42 54.985 48 98.087 102.603 98.087 1.507 0 3.026-.033 4.546-.099 27.413-1.197 52.718-12.979 71.253-33.176 12.36-13.468 20.718-29.604 24.563-46.975l37.616 2.732 17.749 43.337c2.308 5.635 7.792 9.315 13.881 9.315h20.071c8.284 0 15-6.716 15-15s-6.716-15-15-15h-10.005l-17.548-42.846 80.241-120.543 11.46 27.687c-31.297 18.789-51.627 53.704-49.918 92.663 1.202 27.417 13.009 52.725 33.246 71.262 19.101 17.496 43.55 26.983 69.289 26.982 1.531 0 3.069-.033 4.609-.101 27.417-1.202 52.725-13.009 71.262-33.246 18.539-20.241 28.085-46.486 26.882-73.903zm-355.5 53.348c-13.123 14.299-31.043 22.642-50.459 23.49-40.07 1.749-74.108-29.352-75.869-69.336-.853-19.361 5.901-37.893 19.018-52.185 13.123-14.299 31.042-22.641 50.458-23.489 1.079-.047 2.152-.071 3.222-.071 7.663 0 15.068 1.216 22.042 3.44l-35.104 61.719c-2.546 4.475-2.618 9.942-.192 14.483 2.425 4.541 7.01 7.521 12.145 7.894l71 5.156c-3.064 10.634-8.554 20.502-16.261 28.899zm18.41-58.822-47.278-3.433 23.368-41.085c12.705 11.214 21.498 26.804 23.91 44.518zm30.39 2.207c-2.213-29.84-17.161-55.942-39.247-73.192l18.242-32.074 43.789 106.92zm45.903-21.055-42.251-103.165h110.925zm211.794 77.957c-13.124 14.328-31.042 22.688-50.454 23.539-19.405.851-37.993-5.908-52.32-19.032-14.328-13.124-22.688-31.042-23.539-50.454-.851-19.411 5.908-37.992 19.032-52.32 3.806-4.155 8.025-7.79 12.556-10.904l27.225 65.774c2.392 5.779 7.978 9.267 13.865 9.267 1.911 0 3.855-.368 5.73-1.144 7.655-3.168 11.292-11.942 8.123-19.596l-27.223-65.769c3.334-.616 6.73-1.015 10.177-1.166 1.081-.047 2.153-.071 3.226-.071 38.654 0 70.924 30.566 72.634 69.557.851 19.41-5.907 37.991-19.032 52.319z"/></g></svg>