<?xml version="1.0" encoding="UTF-8"?>
<svg enable-background="new 0 0 513.196 513.196" version="1.1" viewBox="0 0 513.2 513.2" xml:space="preserve" xmlns="http://www.w3.org/2000/svg"><path d="m510.32 88.48-5.973-5.974 1.365-1.451c9.984-10.028 9.984-26.239 0-36.267l-36.182-36.18c-9.994-9.984-26.187-9.984-36.181 0l-1.451 1.451-6.058-6.059c-3.316-3.323-8.697-3.328-12.02-0.012l-0.012 0.012c-3.327 3.354-3.327 8.764 0 12.117l6.059 5.973-12.117 12.117-6.059-6.059c-3.323-3.323-8.709-3.323-12.032 0s-3.323 8.709 0 12.032l6.059 6.059c-8.605 8.62-11.956 21.177-8.789 32.939l-20.139 20.225-0.598 0.597-0.429 0.394c-0.073 0.068-0.171 0.089-0.242 0.16-0.046 0.046-0.059 0.109-0.104 0.156l-0.25 0.229-23.687 23.686-0.093 0.062-0.062 0.093-0.307 0.307-22.528 22.613-0.884 0.884c-0.11 0.099-0.254 0.133-0.36 0.239s-0.14 0.25-0.239 0.36l-0.906 0.906-22.893 22.808-0.095 0.064-0.062 0.094-22.261 22.261-0.165 0.205c-0.069 0.065-0.161 0.084-0.229 0.152l-7e-3 0.01-0.026-0.026c-6.799-7.256-14.416-13.699-22.699-19.2-26.795-17.493-66.304-18.347-86.016 10.325-6.192 10.236-10.471 21.513-12.629 33.28-3.413 13.909-6.315 25.856-15.445 32.341-9.347 4.96-19.915 7.151-30.464 6.315-4.096 0.171-8.192 0.341-12.203 0.683-35.467 3.318-66.564 25.076-81.835 57.259-12.492 30.6-12.061 64.955 1.195 95.232 15.81 39.01 46.076 70.407 84.48 87.637 17.714 8.09 36.932 12.364 56.405 12.544 6.871 0.026 13.728-0.603 20.48-1.877 26.456-4.347 49.833-19.695 64.341-42.24 9.986-17.269 15.199-36.884 15.104-56.832 0.085-2.731 0.085-5.632 0.085-8.533-0.144-5.617 0.141-11.237 0.853-16.811 0.446-5.497 2.361-10.773 5.547-15.275 6.912-9.387 20.309-12.117 34.389-14.933 5.632-1.109 11.349-2.304 16.811-3.925 14.165-4.096 29.611-14.507 30.379-31.232 0.853-17.493-15.104-31.061-31.232-35.499-2.731-0.768-5.547-1.365-8.448-1.963-5.238-0.887-10.342-2.435-15.189-4.608l150.87-150.87c2.864 0.785 5.82 1.186 8.789 1.195 9.058 0.02 17.75-3.574 24.149-9.984h0.086l5.973 5.973c3.197 3.323 8.483 3.424 11.805 0.227 0.077-0.074 0.153-0.15 0.227-0.227 3.323-3.315 3.328-8.696 0.013-12.019l-5.986-5.986 12.032-12.117 6.059 5.973c3.196 3.323 8.48 3.425 11.803 0.229 0.078-0.075 0.154-0.151 0.229-0.229 3.323-3.314 3.329-8.695 0.015-12.017-5e-3 -5e-3 -9e-3 -0.01-0.014-0.015zm-371.44 336.46-0.015 0.015c-1.601 1.612-3.787 2.505-6.059 2.475-2.246 0.029-4.406-0.865-5.973-2.475l-36.267-36.181c-3.323-3.315-3.329-8.695-0.014-12.018 5e-3 -5e-3 9e-3 -9e-3 0.015-0.013v-1e-3c3.253-3.346 8.602-3.422 11.948-0.169 0.057 0.056 0.114 0.112 0.169 0.169l36.181 36.181c3.323 3.314 3.329 8.694 0.015 12.017zm24.135 24.164c-0.383 0.391-0.813 0.735-1.28 1.023-0.493 0.317-1.006 0.602-1.536 0.853-0.5 0.182-1.014 0.324-1.536 0.427-0.557 0.141-1.133 0.198-1.707 0.171-2.245 0.022-4.402-0.871-5.973-2.475-3.323-3.197-3.424-8.483-0.227-11.805 0.074-0.077 0.15-0.153 0.227-0.227 2.019-1.998 4.884-2.889 7.68-2.389 0.524 0.132 1.038 0.303 1.536 0.512l1.536 0.768c0.447 0.345 0.875 0.716 1.28 1.109 1.603 1.572 2.497 3.729 2.475 5.973 0.023 2.271-0.869 4.455-2.475 6.06zm36.149-12.075c-3.343 3.325-8.75 3.311-12.075-0.032-1.582-1.591-2.475-3.74-2.485-5.984 0.025-2.277 0.945-4.453 2.56-6.059 3.389-3.157 8.643-3.157 12.032 0 3.326 3.344 3.311 8.75-0.032 12.075zm0.18-48.293c-0.031 0.031-0.062 0.062-0.148 0.037v-1e-3c-9.961 9.991-26.135 10.016-36.127 0.055l-36.237-36.236c-10.043-9.963-10.108-26.181-0.145-36.224s26.181-10.108 36.224-0.145c0.034 0.034 0.069 0.068 0.103 0.103l36.181 36.267c10.023 9.97 10.12 26.122 0.149 36.144zm52.93-102.53-12.032 12.032-24.149-24.149 12.032-12.031h0.043l24.127 24.129-0.021 0.019zm14.677-14.591-0.768 0.683-0.085 0.171-0.853 0.939-0.841 0.757-24.148-24.152 12.104-12.105 24.064 24.149-9.473 9.558zm21.589-21.59-24.149-24.149 11.435-11.52 0.427-0.427 0.171-0.085 0.034-0.034 24.108 24.105-12.026 12.11zm34.731-34.816-10.581 10.667-0.015 0.015-24.151-24.148 10.647-10.647 24.105 24.108-5e-3 5e-3zm12.117-12.032-2e-3 2e-3 -24.148-24.15 12.069-12.069 24.108 24.105-12.027 12.112zm24.15-24.149-0.013 0.013-24.151-24.148 12.072-12.072 24.105 24.108-12.013 12.099zm36.181-36.182-12.1 12.016-24.105-24.108 12.067-12.067 24.147 24.15-9e-3 9e-3zm12.117-12.116h-0.084l-24.106-24.109 12.073-12.072 24.149 24.149-12.032 12.032zm18.02-66.405-0.015 0.015c-3.197 3.323-8.483 3.424-11.805 0.227-0.077-0.074-0.153-0.15-0.227-0.227l-5.973-5.973 12.032-12.032 5.973 5.973c3.323 3.314 3.33 8.695 0.015 12.017zm12.33-23.908c-0.077-0.074-0.153-0.15-0.227-0.227l-5.973-5.973 12.032-12.032 5.973 5.973c3.323 3.316 3.328 8.697 0.012 12.02l-0.012 0.012c-3.197 3.323-8.483 3.424-11.805 0.227zm17.864 66.163-6.059-6.059c-3.323-3.323-3.323-8.709 0-12.032s8.709-3.323 12.032 0l6.059 6.059-12.032 12.032zm24.149-24.149-6.059-5.973c-3.327-3.354-3.327-8.763 0-12.117 3.316-3.323 8.697-3.328 12.02-0.012l6.071 6.071-12.032 12.031z"/><path d="m187.17 364.63-0.014-0.014-36.267-36.181c-3.323-3.323-8.709-3.323-12.032 0s-3.323 8.709 0 12.032l36.181 36.181c3.354 3.328 8.764 3.328 12.117 0 3.324-3.315 3.33-8.695 0.015-12.018z"/></svg>
