<?xml version="1.0" encoding="UTF-8"?>
<svg enable-background="new 0 0 480 480" version="1.1" viewBox="0 0 480 480" xml:space="preserve" xmlns="http://www.w3.org/2000/svg"><path d="M448,48H32C14.368,48,0,62.368,0,80v320c0,17.664,14.368,32,32,32h416c17.664,0,32-14.336,32-32V80  C480,62.368,465.664,48,448,48z M144,272c8.832,0,16-7.168,16-16V80h32v176c0,8.832,7.168,16,16,16h16v128h-96V272H144z M256,272h16  c8.832,0,16-7.168,16-16V80h32v176c0,8.832,7.168,16,16,16h16v128h-96V272z M32,80h32v176c0,8.832,7.168,16,16,16h16v128H32V80z   M448,416v-16h-64V272h16c8.832,0,16-7.168,16-16V80h32v320h0.032L448,416z"/></svg>
